<mxfile host="app.diagrams.net" modified="2024-02-01T02:17:06.406Z" agent="Mozilla/5.0 (Windows NT 10.0; Win64; x64) AppleWebKit/537.36 (KHTML, like Gecko) Chrome/120.0.0.0 Safari/537.36" etag="GnyYEzaAyvBCo8KWmf5-" version="23.1.0" type="github">
  <diagram name="第 1 页" id="Gr785S4-9Rggw9POWB6X">
    <mxGraphModel dx="1149" dy="688" grid="0" gridSize="10" guides="1" tooltips="1" connect="1" arrows="1" fold="1" page="1" pageScale="1" pageWidth="827" pageHeight="1169" background="#d3cfcf" math="0" shadow="0">
      <root>
        <mxCell id="0" />
        <mxCell id="1" parent="0" />
        <mxCell id="PDhjN5AeKmSOFGGJnBnB-16" style="edgeStyle=orthogonalEdgeStyle;rounded=0;orthogonalLoop=1;jettySize=auto;html=1;exitX=0;exitY=0.5;exitDx=0;exitDy=0;entryX=1;entryY=0.5;entryDx=0;entryDy=0;" edge="1" parent="1" source="PDhjN5AeKmSOFGGJnBnB-1" target="PDhjN5AeKmSOFGGJnBnB-3">
          <mxGeometry relative="1" as="geometry" />
        </mxCell>
        <mxCell id="PDhjN5AeKmSOFGGJnBnB-19" style="edgeStyle=orthogonalEdgeStyle;rounded=0;orthogonalLoop=1;jettySize=auto;html=1;exitX=1;exitY=0.5;exitDx=0;exitDy=0;entryX=0;entryY=0.5;entryDx=0;entryDy=0;" edge="1" parent="1" source="PDhjN5AeKmSOFGGJnBnB-1" target="PDhjN5AeKmSOFGGJnBnB-17">
          <mxGeometry relative="1" as="geometry" />
        </mxCell>
        <mxCell id="PDhjN5AeKmSOFGGJnBnB-1" value="Bearer Network" style="rounded=1;whiteSpace=wrap;html=1;fillColor=#fff2cc;strokeColor=#d6b656;fontSize=15;fontFamily=Comic Sans MS;" vertex="1" parent="1">
          <mxGeometry x="240" y="180" width="120" height="60" as="geometry" />
        </mxCell>
        <mxCell id="PDhjN5AeKmSOFGGJnBnB-12" style="edgeStyle=orthogonalEdgeStyle;rounded=0;orthogonalLoop=1;jettySize=auto;html=1;exitX=0;exitY=0.5;exitDx=0;exitDy=0;entryX=1;entryY=0.5;entryDx=0;entryDy=0;" edge="1" parent="1" source="PDhjN5AeKmSOFGGJnBnB-2" target="PDhjN5AeKmSOFGGJnBnB-4">
          <mxGeometry relative="1" as="geometry" />
        </mxCell>
        <mxCell id="PDhjN5AeKmSOFGGJnBnB-2" value="Shedule Task" style="rounded=1;whiteSpace=wrap;html=1;fillColor=#f8cecc;strokeColor=#b85450;fontFamily=Comic Sans MS;fontSize=15;" vertex="1" parent="1">
          <mxGeometry x="430" y="300" width="120" height="60" as="geometry" />
        </mxCell>
        <mxCell id="PDhjN5AeKmSOFGGJnBnB-3" value="Peer System" style="rounded=1;whiteSpace=wrap;html=1;fillColor=#dae8fc;strokeColor=#6c8ebf;fontFamily=Comic Sans MS;fontSize=15;" vertex="1" parent="1">
          <mxGeometry x="40" y="180" width="120" height="60" as="geometry" />
        </mxCell>
        <mxCell id="PDhjN5AeKmSOFGGJnBnB-14" style="edgeStyle=orthogonalEdgeStyle;rounded=0;orthogonalLoop=1;jettySize=auto;html=1;exitX=0.5;exitY=0;exitDx=0;exitDy=0;entryX=0.5;entryY=1;entryDx=0;entryDy=0;" edge="1" parent="1" source="PDhjN5AeKmSOFGGJnBnB-4" target="PDhjN5AeKmSOFGGJnBnB-7">
          <mxGeometry relative="1" as="geometry" />
        </mxCell>
        <mxCell id="PDhjN5AeKmSOFGGJnBnB-4" value="Banked" style="rounded=1;whiteSpace=wrap;html=1;fillColor=#f8cecc;strokeColor=#b85450;fontFamily=Comic Sans MS;fontSize=15;" vertex="1" parent="1">
          <mxGeometry x="240" y="370" width="120" height="60" as="geometry" />
        </mxCell>
        <mxCell id="PDhjN5AeKmSOFGGJnBnB-15" style="edgeStyle=orthogonalEdgeStyle;rounded=0;orthogonalLoop=1;jettySize=auto;html=1;exitX=0.5;exitY=0;exitDx=0;exitDy=0;entryX=0.5;entryY=1;entryDx=0;entryDy=0;" edge="1" parent="1" source="PDhjN5AeKmSOFGGJnBnB-7" target="PDhjN5AeKmSOFGGJnBnB-1">
          <mxGeometry relative="1" as="geometry" />
        </mxCell>
        <mxCell id="PDhjN5AeKmSOFGGJnBnB-7" value="Nginx" style="ellipse;whiteSpace=wrap;html=1;fillColor=#e1d5e7;strokeColor=#9673a6;fontFamily=Comic Sans MS;fontSize=14;" vertex="1" parent="1">
          <mxGeometry x="260" y="280" width="80" height="40" as="geometry" />
        </mxCell>
        <mxCell id="PDhjN5AeKmSOFGGJnBnB-13" style="edgeStyle=orthogonalEdgeStyle;rounded=0;orthogonalLoop=1;jettySize=auto;html=1;exitX=0;exitY=0.5;exitDx=0;exitDy=0;entryX=1;entryY=0.5;entryDx=0;entryDy=0;" edge="1" parent="1" source="PDhjN5AeKmSOFGGJnBnB-11" target="PDhjN5AeKmSOFGGJnBnB-4">
          <mxGeometry relative="1" as="geometry" />
        </mxCell>
        <mxCell id="PDhjN5AeKmSOFGGJnBnB-11" value="Increment Pull" style="rounded=1;whiteSpace=wrap;html=1;fillColor=#f8cecc;strokeColor=#b85450;fontFamily=Comic Sans MS;fontSize=15;" vertex="1" parent="1">
          <mxGeometry x="430" y="440" width="120" height="60" as="geometry" />
        </mxCell>
        <mxCell id="PDhjN5AeKmSOFGGJnBnB-20" style="edgeStyle=orthogonalEdgeStyle;rounded=0;orthogonalLoop=1;jettySize=auto;html=1;exitX=1;exitY=0.5;exitDx=0;exitDy=0;" edge="1" parent="1" source="PDhjN5AeKmSOFGGJnBnB-17" target="PDhjN5AeKmSOFGGJnBnB-18">
          <mxGeometry relative="1" as="geometry" />
        </mxCell>
        <mxCell id="PDhjN5AeKmSOFGGJnBnB-17" value="Storage Cache" style="rounded=1;whiteSpace=wrap;html=1;fillColor=#fff2cc;strokeColor=#d6b656;fontFamily=Comic Sans MS;fontSize=15;" vertex="1" parent="1">
          <mxGeometry x="430" y="180" width="120" height="60" as="geometry" />
        </mxCell>
        <mxCell id="PDhjN5AeKmSOFGGJnBnB-18" value="CK" style="shape=cylinder3;whiteSpace=wrap;html=1;boundedLbl=1;backgroundOutline=1;size=15;fillColor=#fff2cc;strokeColor=#d6b656;fontFamily=Comic Sans MS;fontSize=15;" vertex="1" parent="1">
          <mxGeometry x="640" y="170" width="60" height="80" as="geometry" />
        </mxCell>
        <mxCell id="PDhjN5AeKmSOFGGJnBnB-21" value="param:&lt;br style=&quot;font-size: 18px;&quot;&gt;1. RemotePath&lt;br style=&quot;font-size: 18px;&quot;&gt;2. LocalPath&lt;br style=&quot;font-size: 18px;&quot;&gt;3. IncrePull&lt;br style=&quot;font-size: 18px;&quot;&gt;4. Time&lt;br&gt;5. Table" style="text;strokeColor=none;fillColor=none;html=1;whiteSpace=wrap;verticalAlign=middle;overflow=hidden;fontFamily=Comic Sans MS;fontSize=18;" vertex="1" parent="1">
          <mxGeometry x="40" y="280" width="153" height="194" as="geometry" />
        </mxCell>
      </root>
    </mxGraphModel>
  </diagram>
</mxfile>
